<svg width="14.4" height="14.4" viewBox="0 0 9 7" fill="none" xmlns="http://www.w3.org/2000/svg">
<path d="M1.35355 4.14645C1.15829 3.95118 0.841709 3.95118 0.646447 4.14645C0.451184 4.34171 0.451184 4.65829 0.646447 4.85355L1.35355 4.14645ZM3 6.5L2.64645 6.85355C2.74313 6.95024 2.8752 7.00311 3.01189 6.99986C3.14859 6.99661 3.27799 6.93751 3.36997 6.83634L3 6.5ZM8.36997 1.33634C8.55572 1.13201 8.54067 0.815783 8.33634 0.63003C8.13201 0.444277 7.81578 0.459335 7.63003 0.663664L8.36997 1.33634ZM0.646447 4.85355L2.64645 6.85355L3.35355 6.14645L1.35355 4.14645L0.646447 4.85355ZM3.36997 6.83634L8.36997 1.33634L7.63003 0.663664L2.63003 6.16366L3.36997 6.83634Z" fill="white"/>
</svg>